<svg preserveAspectRatio="none" overflow="visible" style="display: block;" width="15.0046" height="18" viewBox="0 0 15.0046 18" fill="none" xmlns="http://www.w3.org/2000/svg">
<path id="Vector" d="M10.0463 14.2308V14.8846C10.0463 15.5783 9.77836 16.2435 9.3014 16.734C8.82444 17.2245 8.17754 17.5 7.50302 17.5C6.8285 17.5 6.1816 17.2245 5.70464 16.734C5.22768 16.2435 4.95972 15.5783 4.95972 14.8846V14.2308M14.3254 12.8998C13.3049 11.6154 12.5844 10.9615 12.5844 7.42055C12.5844 4.17788 10.9742 3.02262 9.64893 2.46154C9.47288 2.38716 9.30717 2.21635 9.25352 2.03041C9.02105 1.21678 8.36933 0.5 7.50302 0.5C6.63671 0.5 5.98459 1.21719 5.7545 2.03123C5.70085 2.21921 5.53514 2.38716 5.3591 2.46154C4.03221 3.02344 2.42358 4.17462 2.42358 7.42055C2.42159 10.9615 1.70112 11.6154 0.680623 12.8998C0.2578 13.4319 0.628168 14.2308 1.36771 14.2308H13.6423C14.3779 14.2308 14.7459 13.4294 14.3254 12.8998Z" stroke="#858585" stroke-linecap="round" stroke-linejoin="round"/>
</svg>
